:SAMPLES-PER-SECOND 30
:FRAME-RANGE 1-1770
:FULLY-SPECIFIED
:DEGREES
775
root  -7.65314 38.2584 37.2924 173.595 72.5293 170.817
RightUpLeg  -4.04548 0.154148 -7.93345
RightLeg  55.0655 -1.62404 -2.91443
RightFoot  0.374459 -1.69011 16.395
RightToes  -1.33073e-015 0 -3.6325e-017
Spine  -7.38506 2.75627 1.17693
Spine1  10.4516 3.58419 -4.53459
HEad  8.56737 25.9822 -4.47788
LeftShoulder1  0.964098 -0.231965 -21.107
LeftArm  3.54861 2.33157 -42.389
LeftForeArm  47.589 -45.7656 -8.20403
LeftHand  0.293229 7.25777 18.8952
RightShoulder  2.36213 4.8056 22.9968
RightArm  18.4983 22.5613 60.3105
RightForeArm  61.3058 41.0865 6.03715
RightHand  0.483567 -9.76953 -13.545
LeftUpLeg  -26.1697 0.952141 -4.66133
LeftLeg  17.0696 13.3162 4.57004
LeftFoot  3.57729 -0.316963 2.25506
LeftToes  1.09107e-011 -1.16422e-010 2.98337e-011
776
root  -6.67559 38.3683 36.7461 173.256 70.5677 170.697
RightUpLeg  -8.96668 -0.313349 -7.53448
RightLeg  62.7286 -2.82083 -6.49281
RightFoot  8.98328 -1.61701 9.34824
RightToes  -1.33073e-015 0 -3.6325e-017
Spine  -6.69142 2.60038 0.577229
Spine1  10.356 3.51036 -4.6035
HEad  8.66769 24.2999 -4.15422
LeftShoulder1  0.993671 -0.462252 -20.1663
LeftArm  1.44926 -1.85718 -41.8953
LeftForeArm  50.8155 -48.9204 -9.13158
LeftHand  0.386237 7.83166 18.8931
RightShoulder  2.35771 4.97411 22.3119
RightArm  17.9939 25.2323 61.5271
RightForeArm  64.065 44.1364 6.788
RightHand  0.54576 -9.919 -14.6334
LeftUpLeg  -24.6725 -0.171197 -5.71895
LeftLeg  18.1685 12.3665 4.64827
LeftFoot  2.01226 -0.363252 2.99851
LeftToes  1.09107e-011 -1.16422e-010 2.98337e-011
777
root  -5.78895 38.3573 36.2975 172.611 68.6041 170.012
RightUpLeg  -12.8023 -0.16141 -7.52596
RightLeg  67.7144 -2.39369 -7.13448
RightFoot  4.476 -1.28932 9.4825
RightToes  -1.33073e-015 0 -3.6325e-017
Spine  -5.79594 2.5335 -0.561797
Spine1  10.0975 3.42534 -4.89793
HEad  8.8892 22.7857 -3.97497
LeftShoulder1  1.10123 -0.997342 -19.3317
LeftArm  -0.913521 -5.96189 -41.3909
LeftForeArm  53.2847 -51.505 -10.0015
LeftHand  0.417815 7.93388 19.5167
RightShoulder  2.3782 5.19007 21.8002
RightArm  17.1881 27.7019 62.2396
RightForeArm  65.7608 47.0587 7.63059
RightHand  0.669305 -10.3211 -16.2614
LeftUpLeg  -23.903 -1.02673 -6.82352
LeftLeg  20.016 11.3248 4.75007
LeftFoot  -0.217376 -0.293071 3.02267
LeftToes  1.09107e-011 -1.16422e-010 2.98337e-011
778
root  -4.89268 38.4145 35.8536 173.428 66.6807 170.78
RightUpLeg  -16.2984 0.461544 -6.85883
RightLeg  69.4652 -1.9725 -6.62214
RightFoot  -0.108222 -0.841526 8.53409
RightToes  -1.33073e-015 0 -3.6325e-017
Spine  -5.05315 2.44979 -1.00234
Spine1  9.81032 3.33268 -5.1054
HEad  9.04618 21.2898 -3.89482
LeftShoulder1  1.18984 -1.49946 -18.4391
LeftArm  -3.27045 -10.1647 -41.2466
LeftForeArm  56.3346 -53.7666 -10.7928
LeftHand  0.514001 8.45365 19.8249
RightShoulder  2.3666 5.35807 21.0784
RightArm  15.8339 29.9656 62.935
RightForeArm  67.7511 49.7237 8.46168
RightHand  0.79939 -10.6419 -18.0324
LeftUpLeg  -22.8559 -1.66584 -7.28702
LeftLeg  21.223 10.1263 4.5847
LeftFoot  -2.52651 -0.200982 2.80528
LeftToes  1.09107e-011 -1.16422e-010 2.98337e-011
779
root  -3.97152 38.5207 35.4138 174.365 64.8505 171.615
RightUpLeg  -19.5111 1.22098 -6.36017
RightLeg  68.3559 -1.92298 -6.08245
RightFoot  -2.53757 -0.604597 7.61749
RightToes  -1.33073e-015 0 -3.6325e-017
Spine  -4.27843 2.35401 -1.28855
Spine1  9.25775 3.30039 -5.34066
HEad  9.09925 19.9451 -3.65299
LeftShoulder1  1.27073 -2.04777 -17.3315
LeftArm  -5.17569 -13.9274 -41.1993
LeftForeArm  59.3439 -56.2999 -11.8277
LeftHand  0.760246 9.75995 20.3835
RightShoulder  2.35684 5.51151 20.4513
RightArm  14.5179 32.1921 63.5993
RightForeArm  69.528 51.8159 9.17119
RightHand  1.05193 -11.1399 -21.3309
LeftUpLeg  -21.4882 -2.25204 -7.53728
LeftLeg  21.7777 9.01083 4.28706
LeftFoot  -4.58922 -0.114978 2.41803
LeftToes  1.09107e-011 -1.16422e-010 2.98337e-011
780
root  -3.05404 38.582 34.9837 175.379 62.9951 172.322
RightUpLeg  -22.2515 1.83072 -6.16188
RightLeg  64.902 -2.51965 -6.47338
RightFoot  -6.55259 -0.339058 7.03208
RightToes  -1.33073e-015 0 -3.6325e-017
Spine  -3.62861 2.21546 -1.74825
Spine1  8.66993 3.21185 -5.38598
HEad  8.79255 18.7149 -3.59222
LeftShoulder1  1.36758 -2.67346 -16.3941
LeftArm  -7.03318 -17.5687 -41.5119
LeftForeArm  61.9696 -57.8865 -12.5017
LeftHand  0.812619 9.85129 21.2546
RightShoulder  2.3376 5.63907 19.8109
RightArm  13.4832 34.4398 64.0894
RightForeArm  70.1026 53.2517 9.73174
RightHand  1.35624 -11.3111 -26.2513
LeftUpLeg  -20.4603 -2.63404 -7.73122
LeftLeg  22.5057 7.66821 3.90837
LeftFoot  -6.48541 -0.0593407 2.32057
LeftToes  1.09107e-011 -1.16422e-010 2.98337e-011
781
root  -2.13489 38.6528 34.5462 176.955 61.0713 173.548
RightUpLeg  -24.2432 2.22672 -5.99219
RightLeg  58.8416 -3.96008 -7.50163
RightFoot  -10.1733 -0.137166 6.66294
RightToes  -1.33073e-015 0 -3.6325e-017
Spine  -2.93679 1.93696 -1.83364
Spine1  7.88969 3.00773 -5.32048
HEad  8.09498 17.6662 -3.6024
LeftShoulder1  1.439 -3.21005 -15.5363
LeftArm  -8.13008 -20.808 -41.8292
LeftForeArm  63.755 -59.2429 -13.1676
LeftHand  1.4562 12.8531 22.5231
RightShoulder  2.30839 5.7211 19.2059
RightArm  12.4863 36.7622 64.6087
RightForeArm  70.945 54.2455 10.1192
RightHand  1.52156 -11.1275 -30.0557
LeftUpLeg  -19.5656 -2.96848 -7.55795
LeftLeg  23.1791 6.28166 3.44994
LeftFoot  -7.93964 -0.0226414 2.37147
LeftToes  1.09107e-011 -1.16422e-010 2.98337e-011
782
root  -1.22903 38.7076 34.1057 179.218 59.0989 175.414
RightUpLeg  -25.694 2.65615 -5.82
RightLeg  50.8836 -5.98075 -8.17516
RightFoot  -10.9777 -0.0958719 6.68904
RightToes  -1.33073e-015 0 -3.6325e-017
Spine  -2.16532 1.66468 -1.34688
Spine1  6.89533 2.77066 -4.9276
HEad  6.83057 16.7332 -3.82174
LeftShoulder1  1.54835 -3.88905 -14.9204
LeftArm  -9.10294 -23.6261 -42.3154
LeftForeArm  67.3626 -60.0939 -13.4334
LeftHand  1.19585 11.3237 23.2646
RightShoulder  2.2958 5.86596 18.622
RightArm  11.7079 39.2909 64.9136
RightForeArm  71.6582 54.1213 10.0273
RightHand  1.38923 -10.1595 -32.7769
LeftUpLeg  -18.8109 -3.98516 -6.80082
LeftLeg  23.6628 5.49928 3.16268
LeftFoot  -9.11868 -0.00981738 3.33383
LeftToes  1.09107e-011 -1.16422e-010 2.98337e-011
